<svg width="25" height="25" viewBox="0 0 25 25" fill="none" xmlns="http://www.w3.org/2000/svg">
<path fill-rule="evenodd" clip-rule="evenodd" d="M12.5 25C10.0277 25 7.61099 24.2669 5.55537 22.8934C3.49976 21.5199 1.89761 19.5676 0.951511 17.2835C0.00541598 14.9995 -0.242126 12.4861 0.24019 10.0614C0.722505 7.63661 1.91301 5.40933 3.66116 3.66117C5.40932 1.91301 7.6366 0.722505 10.0614 0.24019C12.4861 -0.242126 14.9995 0.00541604 17.2835 0.951511C19.5676 1.89761 21.5199 3.49976 22.8934 5.55538C24.2669 7.61099 25 10.0277 25 12.5C24.9901 15.8122 23.67 18.9858 21.3279 21.3279C18.9858 23.67 15.8122 24.9901 12.5 25ZM18.75 6.25L12.6563 9.0625C11.0996 9.83795 9.83795 11.0996 9.06251 12.6563L6.25001 18.75L12.3437 15.9375C13.9004 15.1621 15.1621 13.9005 15.9375 12.3438L18.75 6.25Z" fill="#AAAAAA"/>
</svg>
