<svg width="25" height="26" viewBox="0 0 25 26" fill="none" xmlns="http://www.w3.org/2000/svg">
<path d="M22.0509 14.274C22.1023 13.858 22.1408 13.442 22.1408 13C22.1408 12.558 22.1023 12.142 22.0509 11.726L24.7624 9.581C25.0065 9.386 25.0708 9.035 24.9166 8.749L22.3464 4.251C22.1922 3.965 21.8453 3.861 21.5626 3.965L18.3627 5.265C17.6945 4.745 16.9749 4.316 16.191 3.991L15.7027 0.546C15.6641 0.234 15.3942 0 15.073 0H9.9327C9.61144 0 9.34157 0.234 9.30302 0.546L8.8147 3.991C8.03081 4.316 7.31117 4.758 6.64293 5.265L3.44312 3.965C3.14755 3.848 2.81344 3.965 2.65923 4.251L0.0890957 8.749C-0.077963 9.035 -0.000858813 9.386 0.243304 9.581L2.95479 11.726C2.90339 12.142 2.86484 12.571 2.86484 13C2.86484 13.429 2.90339 13.858 2.95479 14.274L0.243304 16.419C-0.000858813 16.614 -0.0651123 16.965 0.0890957 17.251L2.65923 21.749C2.81344 22.035 3.1604 22.139 3.44312 22.035L6.64293 20.735C7.31117 21.255 8.03081 21.684 8.8147 22.009L9.30302 25.454C9.34157 25.766 9.61144 26 9.9327 26H15.073C15.3942 26 15.6641 25.766 15.7027 25.454L16.191 22.009C16.9749 21.684 17.6945 21.242 18.3627 20.735L21.5626 22.035C21.8581 22.152 22.1922 22.035 22.3464 21.749L24.9166 17.251C25.0708 16.965 25.0065 16.614 24.7624 16.419L22.0509 14.274ZM12.5028 17.55C10.0227 17.55 8.00511 15.509 8.00511 13C8.00511 10.491 10.0227 8.45 12.5028 8.45C14.983 8.45 17.0006 10.491 17.0006 13C17.0006 15.509 14.983 17.55 12.5028 17.55Z" fill="#AAAAAA"/>
</svg>
